<svg width="83" height="20" viewBox="0 0 83 20" fill="none" xmlns="http://www.w3.org/2000/svg">
<g opacity="0.3" clip-path="url(#clip0_205_13)">
<path fill-rule="evenodd" clip-rule="evenodd" d="M0.231352 14.7541L3.16546 12.5064C4.72377 14.5406 6.37855 15.478 8.22244 15.4779C10.0561 15.4778 11.6653 14.551 13.1535 12.5327L16.1283 14.7262C13.9826 17.6362 11.3129 19.1737 8.22268 19.1739C5.14271 19.1742 2.44806 17.6478 0.231352 14.7541Z" fill="white"/>
<path fill-rule="evenodd" clip-rule="evenodd" d="M8.21241 4.98557L2.99022 9.48607L0.577347 6.68626L8.22246 0.0976639L15.809 6.69037L13.3847 9.48024L8.21241 4.98557Z" fill="white"/>
<path d="M36.1571 3.89498L33.2002 3.89517L33.201 16.2154L36.1579 16.2152L36.1571 3.89498Z" fill="white"/>
<path fill-rule="evenodd" clip-rule="evenodd" d="M27.2254 16.2701C25.4823 16.2703 24.0298 15.7055 22.8515 14.5758C21.6732 13.43 21.0921 11.9613 21.092 10.1698C21.0918 8.36218 21.6889 6.87729 22.867 5.71519C24.0613 4.5369 25.5138 3.95579 27.2407 3.95567C29.3711 3.95553 31.2596 4.87535 32.357 6.31171L30.4366 8.32929C29.5165 7.34483 28.5159 6.84457 27.4346 6.84465C26.5146 6.84471 25.7561 7.1514 25.1267 7.78089C24.5134 8.41038 24.2069 9.20124 24.2069 10.1535C24.207 11.0734 24.5137 11.8481 25.127 12.4775C25.7565 13.0908 26.5151 13.3973 27.4189 13.3973C28.5971 13.3972 29.6299 12.8807 30.4852 11.8638L32.4868 13.7843C31.9382 14.5106 31.1956 15.1078 30.2756 15.5759C29.356 16.0441 28.339 16.2701 27.2254 16.2701Z" fill="white"/>
<path fill-rule="evenodd" clip-rule="evenodd" d="M40.5922 4.88025C40.5923 5.76483 39.8755 6.48195 38.9909 6.48201C38.1062 6.48207 37.3891 5.76504 37.389 4.88046C37.389 3.99591 38.106 3.27879 38.9907 3.27873C39.8753 3.27867 40.5922 3.9957 40.5922 4.88025ZM40.4692 7.2211L37.5124 7.2213L37.513 16.2151L40.4698 16.2149L40.4692 7.2211Z" fill="white"/>
<path fill-rule="evenodd" clip-rule="evenodd" d="M46.1854 16.285C44.7814 16.2851 43.6515 15.8494 42.7639 14.9779C41.8922 14.1065 41.4562 12.9929 41.4561 11.621C41.456 10.2492 41.8919 9.13548 42.7794 8.26391C43.6671 7.39232 44.8129 6.95647 46.2332 6.95638C48.0894 6.95625 49.7194 7.85994 50.478 9.55456L48.2024 10.749C47.7505 9.99051 47.1212 9.60319 46.298 9.60324C45.7009 9.60328 45.2166 9.797 44.8294 10.1844C44.4581 10.5717 44.2645 11.0559 44.2645 11.6208C44.2646 12.799 45.12 13.6705 46.2661 13.6704C47.089 13.6703 47.8475 13.2184 48.1704 12.5244L50.4461 13.88C49.6714 15.3648 48.0738 16.2849 46.1854 16.285Z" fill="white"/>
<path fill-rule="evenodd" clip-rule="evenodd" d="M54.1448 3.89375L51.188 3.89395L51.1888 16.2142L54.1456 16.214L54.1454 13.0776L54.4918 12.7545L57.1949 16.2138L60.6346 16.2136L56.4815 10.8987L60.4262 7.21977L56.8131 7.22001L54.1452 9.70842L54.1448 3.89375Z" fill="white"/>
<path fill-rule="evenodd" clip-rule="evenodd" d="M61.1678 11.558L61.1672 3.89334L64.2475 3.89314L64.248 11.3862C64.2481 12.7258 65.0287 13.3713 66.1577 13.3712C67.2702 13.3711 68.0672 12.6932 68.0672 11.3859L68.0667 3.89288L71.1467 3.89267L71.1472 11.5573C71.1474 15.0757 68.6774 16.3994 66.1579 16.3995C63.6547 16.3997 61.168 15.0764 61.1678 11.558Z" fill="white"/>
<path fill-rule="evenodd" clip-rule="evenodd" d="M77.8006 16.4589C80.1821 16.4587 82.1127 14.3625 82.1125 11.7769C82.1123 9.19126 80.1815 7.09533 77.8 7.09549C76.8293 7.09556 75.9337 7.44388 75.2128 8.03161L75.2128 7.21888L72.3792 7.21907L72.38 19.9089L75.2136 19.9087L75.2133 15.5231C75.9342 16.1107 76.8299 16.4589 77.8006 16.4589ZM75.2131 11.7822L75.2131 11.7725C75.2156 10.618 76.1245 9.68285 77.2457 9.68278C78.3686 9.6827 79.2788 10.6204 79.2789 11.7771C79.279 12.9338 78.3689 13.8716 77.246 13.8716C76.1248 13.8717 75.2158 12.9367 75.2131 11.7822Z" fill="white"/>
</g>
<defs>
<clipPath id="clip0_205_13">
<rect width="82.3188" height="20" fill="white" transform="translate(0 0.00552572)"/>
</clipPath>
</defs>
</svg>
