<svg width="95" height="22" viewBox="0 0 95 22" fill="none" xmlns="http://www.w3.org/2000/svg">
<g opacity="0.3" clip-path="url(#clip0_205_23)">
<path d="M26.6152 4.68276L31.1922 4.68245C35.1118 4.68219 37.5901 7.21076 37.5904 11.1556C37.5906 15.1004 35.1253 17.6293 31.1931 17.6296L26.6161 17.6299L26.6152 4.68276ZM31.0918 15.2652C33.5573 15.265 34.9101 13.6845 34.9099 11.1684C34.9098 8.63967 33.5568 7.0593 31.0913 7.05947L29.2959 7.05959L29.2964 15.2653L31.0918 15.2652Z" fill="white"/>
<path d="M44.5315 10.7884C44.1775 10.5735 43.7097 10.4724 43.2166 10.4724C42.3315 10.4724 41.6109 10.9403 41.4213 11.8001L41.4217 17.6415L38.8171 17.6416L38.8164 8.20947L41.4337 8.20929L41.4337 9.13228C41.8383 8.46214 42.6095 7.99427 43.5451 7.99421C43.9877 7.99418 44.3923 8.08266 44.5314 8.15851L44.5315 10.7884Z" fill="white"/>
<rect x="-23.5002" y="-16.4936" width="159" height="59" rx="5.5" stroke="#1B1B1B"/>
<path d="M49.754 17.8559C47.0103 17.8561 45.1263 15.8332 45.1261 12.9378C45.1259 10.0298 47.0096 7.99403 49.7533 7.99385C52.497 7.99366 54.3684 10.0165 54.3686 12.9372C54.3688 15.8326 52.4977 17.8557 49.754 17.8559ZM49.7535 10.2191C48.4385 10.2192 47.7306 11.3572 47.7307 12.9377C47.7308 14.4928 48.4515 15.6434 49.7538 15.6433C51.0561 15.6432 51.7767 14.5052 51.7766 12.9374C51.7765 11.3569 51.0558 10.219 49.7535 10.2191Z" fill="white"/>
<path d="M58.1115 21.1301L55.4943 21.1303L55.4934 8.20842L58.1107 8.20824L58.1107 8.99215C58.5279 8.48638 59.4635 8.00585 60.475 8.00579C63.2187 8.0056 64.774 10.2814 64.7742 12.9492C64.7744 15.6043 63.2194 17.8677 60.4757 17.8679C59.4642 17.8679 58.5285 17.3875 58.1112 16.8818L58.1115 21.1301ZM58.1111 14.4795C58.4272 15.137 59.1227 15.5794 59.8813 15.5794C61.2974 15.5793 62.1444 14.4413 62.1443 12.9367C62.1442 11.4195 61.297 10.2816 59.8809 10.2817C59.097 10.2817 58.4269 10.7496 58.1109 11.3818L58.1111 14.4795Z" fill="white"/>
<path d="M68.5424 17.6397L65.8998 17.6399L65.8989 3.92153L68.5414 3.92135L68.5418 8.99147C68.959 8.48569 69.8946 8.00517 70.9061 8.0051C73.6498 8.00492 75.1925 10.2427 75.1926 12.9485C75.1928 15.6542 73.6504 17.867 70.9068 17.8672C69.8953 17.8672 68.9596 17.3868 68.5423 16.8811L68.5424 17.6397ZM68.5422 14.4788C68.833 15.1363 69.5284 15.5788 70.3123 15.5787C71.7284 15.5786 72.5755 14.4406 72.5754 12.936C72.5753 11.4188 71.7281 10.2809 70.312 10.281C69.5534 10.2811 68.8327 10.7489 68.542 11.3811L68.5422 14.4788Z" fill="white"/>
<path d="M80.7562 17.8791C78.0125 17.8793 76.1285 15.8564 76.1283 12.961C76.1281 10.053 78.0118 8.01723 80.7555 8.01704C83.4992 8.01686 85.3706 10.0397 85.3708 12.9604C85.371 15.8558 83.4872 17.8789 80.7562 17.8791ZM80.7557 10.2423C79.4407 10.2424 78.7328 11.3804 78.7329 12.9609C78.733 14.516 79.4537 15.6666 80.756 15.6665C82.0583 15.6664 82.7789 14.5284 82.7788 12.9606C82.7787 11.3801 82.058 10.2422 80.7557 10.2423Z" fill="white"/>
<path d="M91.2501 12.7703L94.6895 17.6505L91.7941 17.6507L89.7709 14.6923L87.7228 17.651L84.9791 17.6512L88.38 12.8337L85.1808 8.219L88.0762 8.2188L89.8971 10.8991L91.7429 8.21856L94.4866 8.21837L91.2501 12.7703Z" fill="white"/>
<path d="M6.94141 0.246142L0.126759 4.63396L4.84311 8.43939L11.6957 4.2033L6.94141 0.246142Z" fill="white"/>
<path d="M0.127203 12.157L6.94244 16.6324L11.6962 12.6746L4.84304 8.4394L0.127203 12.157Z" fill="white"/>
<path d="M11.6963 12.6746L16.4506 16.6318L23.24 12.206L18.5363 8.43852L11.6963 12.6746Z" fill="white"/>
<path d="M23.2393 4.67038L16.4493 0.245548L11.6956 4.20334L18.5361 8.43851L23.2393 4.67038Z" fill="white"/>
<path d="M11.709 13.5217L6.94258 17.4794L4.89422 16.152L4.89432 17.644L11.7095 21.7274L18.5116 17.643L18.5115 16.1511L16.4759 17.4788L11.709 13.5217Z" fill="white"/>
</g>
<defs>
<clipPath id="clip0_205_23">
<rect width="94.8276" height="22" fill="white" transform="translate(0 0.00636538)"/>
</clipPath>
</defs>
</svg>
