<svg width="82" height="28" viewBox="0 0 82 28" fill="none" xmlns="http://www.w3.org/2000/svg">
<g opacity="0.3" clip-path="url(#clip0_205_48)">
<path d="M28.0091 14.6208C28.0117 13.4843 27.6629 12.3748 27.0102 11.4443C26.3577 10.5138 25.4333 9.80786 24.3639 9.42316C24.4612 8.92713 24.5102 8.42284 24.5103 7.91734C24.5112 6.24416 23.9813 4.61381 22.9972 3.2607C22.013 1.90758 20.6252 0.901391 19.033 0.386798C17.4411 -0.127797 15.7267 -0.12429 14.1368 0.396814C12.5468 0.917919 11.163 1.92978 10.1844 3.28691C9.46233 2.72743 8.57757 2.41849 7.66415 2.40695C6.75073 2.3954 5.85845 2.68184 5.12243 3.22288C4.3864 3.76393 3.84677 4.53011 3.58524 5.40537C3.32373 6.28061 3.35458 7.21725 3.67312 8.07339C2.60121 8.46418 1.67471 9.17384 1.01819 10.1069C0.361679 11.04 0.00666836 12.1518 0.000910749 13.2927C-0.00198709 14.4332 0.348717 15.5465 1.00474 16.4793C1.66075 17.4122 2.58983 18.1188 3.66405 18.5018C3.569 18.9976 3.52052 19.5011 3.51927 20.006C3.51778 21.6772 4.04709 23.3057 5.03086 24.6568C6.01465 26.0077 7.40205 27.0114 8.99305 27.5231C10.5841 28.0346 12.2964 28.0279 13.8833 27.5034C15.4701 26.9791 16.8494 25.9643 17.8223 24.6055C18.5424 25.1664 19.4256 25.4771 20.3382 25.4907C21.2508 25.5043 22.1429 25.2199 22.8791 24.6807C23.6156 24.1413 24.156 23.3766 24.4183 22.5026C24.6808 21.6284 24.6512 20.6927 24.3337 19.8369C25.4061 19.4468 26.3333 18.7373 26.9901 17.8041C27.6471 16.8709 28.002 15.7588 28.0075 14.6176" fill="white"/>
<path d="M11.0119 12.0204L17.1412 14.8183L23.3269 9.40026C23.4159 8.95323 23.4601 8.4984 23.4586 8.04257C23.4582 6.56688 22.9855 5.13005 22.1097 3.94234C21.2339 2.75463 20.001 1.87839 18.5913 1.44185C17.1816 1.0053 15.6693 1.03136 14.2755 1.51622C12.8817 2.00108 11.6797 2.91927 10.8454 4.13644L9.81526 9.46628L11.0119 12.0204Z" fill="#323232"/>
<path d="M4.66845 18.5112C4.57811 18.9653 4.53287 19.4271 4.53342 19.8901C4.53355 21.372 5.00867 22.8148 5.88906 24.0066C6.76945 25.1987 8.00872 26.077 9.42501 26.5129C10.8413 26.9488 12.36 26.9192 13.7583 26.4284C15.1565 25.9379 16.3607 25.0118 17.1939 23.7864L18.2142 18.468L16.8515 15.8635L10.6995 13.0606L4.66845 18.5112Z" fill="#323232"/>
<path d="M4.63027 7.90547L8.83034 8.89658L9.74979 4.12024C9.17849 3.68711 8.48227 3.45069 7.76537 3.44637C7.04846 3.44204 6.34943 3.67008 5.77297 4.0963C5.19651 4.52251 4.77362 5.124 4.56762 5.81068C4.36162 6.49738 4.3836 7.23231 4.63027 7.90547Z" fill="#323232"/>
<path d="M4.26582 8.90506C3.34431 9.21608 2.54264 9.80656 1.97231 10.5943C1.40197 11.3821 1.09131 12.3281 1.08355 13.3006C1.08295 14.2406 1.36845 15.1584 1.9021 15.9321C2.43573 16.706 3.19224 17.2989 4.07106 17.6323L9.96372 12.3054L8.88101 9.99382L4.26582 8.90506Z" fill="#323232"/>
<path d="M18.2716 23.7864C18.842 24.2173 19.5365 24.4523 20.2513 24.456C20.9661 24.4597 21.663 24.2323 22.2378 23.8073C22.8127 23.3824 23.2347 22.7828 23.4409 22.0983C23.6469 21.4139 23.626 20.681 23.3813 20.0094L19.1845 19.0329L18.2716 23.7864Z" fill="#323232"/>
<path d="M19.1243 17.9275L23.7443 19.0065C24.6664 18.6964 25.4686 18.1062 26.0391 17.3181C26.6096 16.5301 26.9198 15.5838 26.9266 14.611C26.9257 13.673 26.6396 12.7575 26.1065 11.9859C25.5731 11.2143 24.8179 10.6231 23.9407 10.2907L17.8983 15.5818L19.1243 17.9275Z" fill="#323232"/>
<path d="M39.1622 19.6029L39.7222 19.5459L39.7613 20.6855C38.5152 20.8737 37.2578 20.9772 35.9976 20.995C34.6086 20.9951 33.6241 20.5931 33.0445 19.7889C32.465 18.9848 32.1756 17.7334 32.1766 16.035C32.1764 12.6523 33.5209 10.9602 36.2102 10.959C37.5126 10.9589 38.4839 11.3224 39.1243 12.0495C39.7647 12.7766 40.086 13.9161 40.0882 15.468L40.0118 16.5685L33.6434 16.5689C33.6435 17.6368 33.8368 18.428 34.2231 18.9423C34.6096 19.4567 35.2813 19.7139 36.2385 19.7138C37.198 19.717 38.1724 19.68 39.1622 19.6029ZM38.641 15.416C38.6409 14.232 38.4515 13.3958 38.0727 12.9074C37.6938 12.4191 37.0764 12.1744 36.2201 12.1734C35.3638 12.1734 34.7203 12.4307 34.2894 12.9451C33.8587 13.4596 33.6367 14.2833 33.6238 15.4163L38.641 15.416Z" fill="white"/>
<path d="M42.1073 20.918L42.1064 8.22034L43.5537 8.22024L43.5545 20.9179L42.1073 20.918Z" fill="white"/>
<path d="M52.6685 14.0638L52.6688 18.9313C52.6689 19.4197 53.8703 19.3935 53.8703 19.3935L53.7971 20.6731C52.7796 20.6731 51.938 20.7578 51.4333 20.2679C50.3406 20.7534 49.1568 21.0004 47.9611 20.9925C47.0743 20.9926 46.3987 20.7414 45.9343 20.2389C45.4698 19.7364 45.2379 19.0143 45.239 18.0722C45.2389 17.1325 45.4771 16.4406 45.9535 15.9966C46.43 15.5527 47.176 15.2813 48.1918 15.1825L51.2214 14.8942L51.2213 14.0639C51.2213 13.4128 51.0801 12.9429 50.7979 12.6542C50.6433 12.5091 50.4609 12.3968 50.2617 12.324C50.0624 12.2513 49.8506 12.2197 49.6388 12.231L45.8361 12.2313L45.836 10.9566L49.5427 10.9564C50.6367 10.9563 51.4311 11.2075 51.926 11.7099C52.4209 12.2124 52.6684 12.997 52.6685 14.0638ZM46.722 18.0005C46.7221 19.1845 47.2105 19.7765 48.1873 19.7765C49.0684 19.7754 49.9431 19.6251 50.774 19.3319L51.2167 19.1772L51.2165 15.993L48.3661 16.2634C47.7866 16.3156 47.3682 16.4828 47.111 16.7649C46.8538 17.047 46.7241 17.4589 46.722 18.0005Z" fill="white"/>
<path d="M58.319 12.2499C56.9158 12.25 56.2142 12.7384 56.2142 13.7152C56.2143 14.1667 56.3771 14.4852 56.7027 14.6707C57.0283 14.8563 57.7615 15.0494 58.902 15.2501C60.0481 15.4508 60.8588 15.7308 61.3342 16.09C61.8095 16.4492 62.0479 17.1241 62.0489 18.115C62.049 19.1069 61.7306 19.8341 61.0935 20.2965C60.4565 20.7588 59.527 20.9906 58.305 20.9918C57.5073 20.9918 54.844 20.6957 54.844 20.6957L54.9221 19.4422C56.4523 19.5887 57.5577 19.6976 58.3049 19.6976C59.0521 19.6975 59.6202 19.5787 60.0125 19.341C60.4048 19.1033 60.6002 18.7044 60.6001 18.1444C60.6001 17.5844 60.4373 17.2051 60.0986 17.0049C59.76 16.8047 59.0307 16.6159 57.8993 16.4353C56.7679 16.2547 55.9621 15.991 55.4867 15.6443C55.0113 15.2976 54.772 14.653 54.7719 13.7136C54.7719 12.7743 55.0974 12.0857 55.7664 11.6299C56.4355 11.174 57.2559 10.9542 58.2457 10.9541C59.0303 10.9541 61.7538 11.1541 61.7538 11.1541L61.7539 12.4157C60.3165 12.3523 59.1411 12.2499 58.319 12.2499Z" fill="white"/>
<path d="M69.0241 12.4023L65.9555 12.4025L65.9558 17.016C65.9559 18.1218 66.0362 18.8485 66.1969 19.1957C66.3597 19.5441 66.7406 19.7166 67.3446 19.7166L69.062 19.6009L69.1598 20.7974C68.5094 20.9177 67.8509 20.9889 67.19 21.0108C66.1872 21.0108 65.4926 20.7662 65.1062 20.2767C64.7199 19.7872 64.5271 18.8545 64.5281 17.4784L64.5278 12.4026L63.1636 12.4027L63.1635 11.1492L64.5342 11.1491L64.534 8.19607L65.9617 8.19598L65.9619 11.149L69.024 11.1488L69.0241 12.4023Z" fill="white"/>
<path d="M71.036 9.91633L71.0359 8.23633L72.4831 8.23623L72.4832 9.91623L71.036 9.91633ZM71.0367 20.9161L71.0361 11.1487L72.4833 11.1486L72.484 20.916L71.0367 20.9161Z" fill="white"/>
<path d="M78.7524 10.9544C79.4752 10.9852 80.195 11.063 80.9077 11.1871L81.3701 11.244L81.3132 12.421C80.5568 12.3252 79.7963 12.2677 79.0341 12.2486C77.9401 12.2487 77.1973 12.5092 76.8055 13.0302C76.4137 13.5511 76.2175 14.5159 76.2164 15.9246C76.2165 17.3355 76.4001 18.3165 76.7669 18.8678C77.1337 19.4192 77.8988 19.6959 79.0623 19.6979L81.3413 19.5252L81.4 20.7217C80.5128 20.872 79.6167 20.9624 78.7172 20.9921C77.213 20.9922 76.1744 20.606 75.6013 19.8333C75.0283 19.0605 74.7417 17.7582 74.7415 15.9263C74.7414 14.0933 75.0501 12.8067 75.6676 12.0665C76.285 11.3263 77.3133 10.9556 78.7524 10.9544Z" fill="white"/>
</g>
<defs>
<clipPath id="clip0_205_48">
<rect width="81.3953" height="28" fill="white" transform="translate(0 0.00549316)"/>
</clipPath>
</defs>
</svg>
