<svg width="88" height="14" viewBox="0 0 88 14" fill="none" xmlns="http://www.w3.org/2000/svg">
<g opacity="0.3">
<path d="M6.1296 3.83636L7.52264 3.83627C8.39329 3.83621 9.29877 4.01028 9.29884 5.02023C9.2989 5.89088 8.74173 6.51779 7.10491 6.5179L5.57256 6.518L6.1296 3.83636ZM0.000890672 13.6925L4.0407 13.6922L4.87626 9.68721L7.62751 9.68702C11.1101 9.68679 13.3736 7.38812 13.3735 4.70652C13.3733 1.78114 11.806 0.423036 9.36819 0.423199L2.78608 0.423641L0.000890672 13.6925Z" fill="white"/>
<path d="M18.3539 4.98483L18.8418 8.95496L16.2995 8.95513L18.3539 4.98483ZM9.6132 13.6919L13.7923 13.6916L14.8021 11.811L19.1206 11.8107L19.3296 13.6913L23.3346 13.691L21.3138 0.422432L17.274 0.422703L9.6132 13.6919Z" fill="white"/>
<path d="M25.0406 8.81523L22.1843 0.422363L26.2938 0.422087L27.5479 5.36729L30.7863 0.421786L35.5923 0.421463L29.1153 8.78013L28.1056 13.6907L24.031 13.6909L25.0406 8.81523Z" fill="white"/>
<path d="M45.3441 8.63959C45.1004 9.99782 44.0559 14.0029 38.5185 14.0032C34.6529 14.0035 32.8069 11.4962 32.8067 7.94391C32.8064 3.66032 35.4878 0.0730622 40.0151 0.0727583C42.9753 0.0725596 45.6222 1.36094 45.6921 5.3311L41.8264 5.33136C41.8612 4.07762 41.2691 3.38114 40.0154 3.38122C37.7517 3.38138 36.916 5.99338 36.9161 7.87398C36.9162 8.98841 37.1949 10.66 39.0755 10.6599C40.3641 10.6598 41.0954 9.78913 41.3391 8.60503L45.3441 8.63959Z" fill="white"/>
<path d="M47.7117 0.420592L51.8212 0.420316L50.8463 5.01741L54.5727 5.01716L55.5475 0.420066L59.657 0.41979L56.8718 13.6887L52.7972 13.6889L53.8764 8.43015L50.1501 8.4304L49.036 13.6892L44.9613 13.6895L47.7117 0.420592Z" fill="white"/>
<path d="M60.736 0.419735L71.7062 0.418998L71.0099 3.83199L64.1144 3.83245L63.7662 5.4693L70.1742 5.46887L69.5127 8.63807L63.1047 8.6385L62.7566 10.2753L69.7914 10.2749L69.0951 13.6879L57.9508 13.6886L60.736 0.419735Z" fill="white"/>
<path d="M74.5283 6.65261L71.4632 0.418972L75.9209 0.418673L77.2097 3.86636L79.8562 0.418409L84.6971 0.418084L79.1601 6.6523L82.3994 13.6869L77.8024 13.6872L76.3395 9.99579L73.2402 13.6875L68.2253 13.6879L74.5283 6.65261Z" fill="white"/>
<path d="M85.2186 1.01006C85.2186 0.5225 85.5668 0.139391 86.0544 0.139358C86.5071 0.139328 86.8902 0.522388 86.8903 1.00995C86.8903 1.49751 86.5421 1.88062 86.0545 1.88066C85.6018 1.88069 85.2187 1.49763 85.2186 1.01006ZM85.0445 1.01008C85.0445 1.60212 85.4973 2.02 86.0545 2.01996C86.6117 2.01992 87.0644 1.60198 87.0644 1.00994C87.0644 0.452724 86.6116 1.68726e-05 86.0544 5.42762e-05C85.4972 9.16797e-05 85.0445 0.45286 85.0445 1.01008ZM85.6714 1.60207L85.8455 1.60206L85.8455 1.1145L86.0196 1.11449L86.3331 1.63686L86.5421 1.63684L86.1938 1.11448C86.3679 1.11446 86.5072 1.00998 86.5072 0.801021C86.5072 0.557239 86.3679 0.452771 86.0892 0.45279L85.6713 0.452818L85.6714 1.60207ZM85.8455 0.59211L86.0893 0.592093C86.2286 0.592084 86.333 0.626903 86.333 0.766207C86.3331 0.940337 86.1938 0.975172 86.0196 0.975184L85.8455 0.975196L85.8455 0.59211Z" fill="white"/>
</g>
</svg>
